<?xml version="1.0" encoding="UTF-8" standalone="no"?>
<svg width="502px" height="502px" viewBox="0 0 502 502" version="1.1" xmlns="http://www.w3.org/2000/svg" xmlns:xlink="http://www.w3.org/1999/xlink">
    <title>navmenu_bg</title>
    <desc>navmenu_bg babyke.ru</desc>
    <defs></defs>
    <g stroke="none" stroke-width="1" fill="none" fill-rule="evenodd">
        <g id="navmenu_bg" transform="translate(0.000000, -1.000000)">
            <path d="M26.99,1 C26.99,1 27.25,22.69 28.51,24.2 C28.51,24.2 74.3,30.13 96.13,28.73 C95.34,30.1 43.81,76.6 18.79,99.94 C44.79,89.45 71.25,80.06 96.97,68.92 C103.51,96.19 110.6,122.22 117.32,148.34 C116.83,164.13 117.34,224.05 117.3,226.84 C122.56,227.06 177.36,229.25 183.96,228.91 C199.25,222.9 243.51,199.18 250.63,194.22 C251.35,193.59 258.11,146.34 258.39,145.42 C283.13,131.02 307.9,116.64 332.34,101.74 C328.5,116.14 314.28,144.65 315.5,145.09 C316.98,145.18 423.97,148 429.49,148.3 L349.76,224.91 C375.15,229.14 400.48,233.76 425.84,238.15 C425.84,238.15 430.33,150.34 430,148.21 C430,148.21 473.82,151.63 494.91,153.09 C496.95,148.86 499.07,144.66 501,140.38 L501,171.72 C499.05,165.86 496.62,160.16 494.7,154.29 C472.02,182.45 448.8,210.18 426.53,238.67 C429.53,238.76 498.06,243.99 501,244 L501,255.3 C478.15,263.91 417.02,287.09 409.66,290.89 C414.29,273.68 420.56,256.46 426.11,238.99 C399.8,259.08 329.11,313.32 328.69,313.5 C327.44,311.69 308.35,262.11 307.7,260.98 C320.94,248.86 334.52,237.11 347.42,224.61 C315.54,214.55 283.72,204.26 251.61,194.98 C269.63,217.54 289.04,238.96 307.34,261.29 C306.87,262.21 277.6,318.99 262.61,346.02 C262.61,346.02 220.13,368.68 210.07,378.38 C180.73,405.68 153.09,434.78 124.65,463.03 C118.32,435.57 113.11,407.79 108.04,379.98 C109.8,379.82 204.37,375.98 210.96,375.96 C217.18,350.23 224.43,324.75 230.17,298.9 C190.08,324.28 151.69,352.18 111.9,378 C110.13,377.86 103.624908,287.943718 103.55,285.53 C102.86,286.15 1.19,382.56 4.15,382.28 C10.7,382.12 97.77,380.31 106.5,380.09 C80.82,406.42 51.71,430.13 25.73,457.03 C24.7,459.52 26.98,499.71 27.03,501 L1,501 L1,451.12 C8.01,453.25 15.15,454.96 22.35,456.35 C24.31,453.53 1.57,386.79 1,385.2 L1,309.63 C2.25,308.83 20.7700004,296.127019 22.3500004,295.757019 C22.6000004,292.767019 77.84,287.75 103.81,284.84 C108.31,265.98 112.97,247.16 117.28,228.26 C116.82,228.33 55.23,240.62 25.05,246.3 C24.0101261,244 6.6,189.58 1,174.26 L1,138.76 C6.36,126.41 11.88,114.13 17.03,101.69 C14.46,101.77 4.74,101.17 1,100.89 L1,1 L26.99,1 Z M232.19,296.01 C229.9,295.91 251.7,329.66 262.15,344.38 C261.94,343.48 250.9,200.83 250.89,199.58 C244.79,227.05 232.05,291.39 232.19,296.01 Z M168.67,304.15 C173.48,279.67 179.42,255.39 183.23,230.73 C156.75,248.4 130.71,266.72 104.55,284.87 C125.82,291.62 147.23,297.94 168.67,304.15 Z M195.250785,1 L205.069915,1 C205.069915,1 209.415234,93.3767215 209.67,95.25 C209.6,96.63 212.89,158.09 214.39,159.33 C212.42,159.02 201.72,162.79 198.48,164.9 C196.7,165.33 118.79,226.48 118.79,226.48 C118.79,226.48 207.13,97.1 207.6,96.24 C205.81,95.76 98.1377934,70.2211029 97.8877934,69.0211029 C100.217793,67.7011029 195.250785,1 195.250785,1 Z M298.95,1 C313.72,8.8 345.47,22.64 345.47,22.64 C345.47,22.64 338.413866,76.6220905 333.873866,101.75209 C333.873866,101.75209 296.92,85.28 278.52,79.03 C278.52,79.03 220.198472,16.42 206.278472,1 L298.95,1 Z M501,1 L501,101.1 C497.25,101.35 333.860358,101.249998 332.620358,101.099998 C337.660358,94.4999985 392.559563,28.8540629 400.149563,16.2640629 C399.739563,16.5440629 346.05,22.22 346.05,22.22 C350.7,15.21 355.23,8.11 359.73,1 L501,1 Z M23.24,244.31 C15.77,247.22 8.21,249.99 1,253.51 L1,241.86 C8.4,242.77 15.8,243.77 23.24,244.31 Z M408.44,291.4 C407.58,292.73 405,369.72 405,369.72 C406.7,369 500.35,310.6 501,310.44 L501,382.77 C472.05,398.15 442.11,411.65 413.29,427.29 C442.25,436.27 471.95,442.69 501,451.33 L501,501 L359.61,501 C363.07,496.55 411.03,427.29 411.26,427.05 C408.35,427.55 340.09,438.69 337.82,439.38 C359.77,416.12 382.22,393.35 404.13,370.05 C374.74,365.91 345.24,362.53 315.83,358.46 C315.83,358.46 407.19,291.74 408.44,291.4 Z M317.53,360.54 C324.23,386.56 331.49,412.42 337.98,438.49 C320.23,430.88 277.91,409.15 273.5,408.4 C272.26,407.98 218.94,476.28 204.06,496.38 C220.43,491.89 253.46,481.79 253.46,481.79 C268.17,489.28 283.5,495.44 298.62,502 L203.34,502 C203.34,502 188.93,465.77 181.77,450.67 C181.77,450.67 272.18,407.99 277.55,402.56 C291.35,389.01 303.07,373.45 317.53,360.54 Z" id="Shape" fill="#FDFDFD"></path>
            <path d="M66.78,1 C55.33,8.47 29.67,23.48 28.78,24.68 L26.99,1 L66.78,1 L66.78,1 Z M206.69,1 C220.05,16.05 250.532698,47.0214996 250.532698,47.0214996 C250.532698,47.0214996 211.585539,97.077005 211.025539,98.477005 C210.165539,98.077005 206.324909,97.6586987 205.484909,97.2286987 C205.244909,96.2786987 203.06,1 203.06,1 L206.69,1 L206.69,1 Z M358.59,1 C353.64,7.84 349.07,14.99 345.47,22.64 C345.47,22.64 343.36,8.02 343.57,1 L358.59,1 L358.59,1 Z M402.29,15.15 C393.76,26.33 338.9,92.76 334.11,99.27 C338.65,74.14 341.03655,47.1515661 344.93655,21.9315661 L402.29,15.15 L402.29,15.15 Z M207.6,96.24 C207.13,97.1 206.66,97.97 206.18,98.83 C202.55,100.35 117.32,148.34 117.32,148.34 C110.6,122.22 103.51,96.19 98.14,69.75 C98.14,69.75 205.81,95.76 207.6,96.24 L207.6,96.24 L207.6,96.24 Z M209.074128,97.892791 C231.904128,92.642791 256.163422,84.7587016 278.913422,79.1687016 C278.913422,79.1687016 264.07,122.22 258.66,144.34 C257.69,144.75 256.71,145.15 255.74,145.55 C240.12,129.92 209.074128,97.892791 209.074128,97.892791 L209.074128,97.892791 L209.074128,97.892791 Z M421.62,103.81 C407.72,109.82 317.860116,143.555598 316.050116,144.005598 C322.300116,130.585598 332.77,100.4 332.77,100.4 C332.77,100.4 418.32,103.39 421.62,103.81 L421.62,103.81 L421.62,103.81 Z M15.59,101.78 C10.6,104.44 5.65,107.24 1,110.47 L1,101.79 C4.74,101.74 14.46,101.77 15.59,101.78 L15.59,101.78 L15.59,101.78 Z M501,101.93 L501,110.42 C477.75,122.61 429.49,148.3 429.49,148.3 C428.75,139.44 426.3,108.31 425.99,103.31 C432.05,102.81 497.23,101.88 501,101.93 L501,101.93 L501,101.93 Z M254.03,146.2 C255.21,146.86 252.03,184.82 251.54,191.73 C250.32,191.41 211.41,156.83 209.93,155.58 C218.37,154.7 247.81,148.36 254.03,146.2 L254.03,146.2 L254.03,146.2 Z M428.32,149.62 C428.14,151.35 425.84,238.15 425.84,238.15 C400.48,233.76 375.15,229.14 349.76,224.91 C353.41,221.13 427.59,150.44 428.32,149.62 L428.32,149.62 L428.32,149.62 Z M208.43,158.86 C201.11,182.49 192.45,205.69 183.96,228.91 C177.36,229.25 122.56,227.06 118.54,226.93 C118.54,226.93 204.85,160.4 208.43,158.86 L208.43,158.86 L208.43,158.86 Z M262.15,344.38 C251.7,329.66 232.48,296.89 232.19,296.01 C232.05,291.39 244.79,227.05 250.89,199.58 C250.89,199.58 261.94,343.48 262.15,344.38 L262.15,344.38 L262.15,344.38 Z M328.950993,311.385434 C328.467247,311.616266 328.390798,314.713168 327.904888,314.94766 C307.045721,325.013908 283.834222,335.516767 263.41,346.11 C263.41,346.11 294.16626,288.303902 308.34626,260.853902 C308.34626,260.853902 328.480993,309.215434 328.950993,311.385434 L328.950993,311.385434 L328.950993,311.385434 Z M104.769164,284.784285 C105.589164,287.054285 112.147138,380.039348 112.107138,380.919348 C103.377138,381.139348 10.7,382.12 4.15,382.28 C4.65,381.22 102.039164,287.354285 104.769164,284.784285 L104.769164,284.784285 L104.769164,284.784285 Z M403.34,292.79 C401.6,294.92 319.82,356.42 317.38,357.73 C320.19,343.12 323.24,328.53 327.17,314.18 C327.17,314.18 379.05,299.62 403.34,292.79 L403.34,292.79 L403.34,292.79 Z M110.457967,376.959998 C148.574643,351.901489 191.716857,324.243746 230.17,299.9 C224.43,325.75 217.18,351.23 210.96,376.96 C204.37,376.98 111.154827,380.825804 111.154827,380.825804 C112.779435,379.771585 108.835432,378.026677 110.457967,376.959998 L110.457967,376.959998 L110.457967,376.959998 Z M501,382.77 L501,451.33 C471.95,442.69 442.25,436.27 413.29,427.29 C442.11,411.65 472.05,398.15 501,382.77 L501,382.77 L501,382.77 Z M22.35,457.35 C15.15,455.96 8.01,453.25 1,451.12 L1,385.2 C1.57,386.79 22.35,457.35 22.35,457.35 L22.35,457.35 L22.35,457.35 Z M410.35,428.04 C410.35,428.04 362.03,496.45 358.3,501 L343.02,501 C342.02,489.25 339.06,447.07 337.16,439.72 C337.16,439.72 407.8,428.36 410.35,428.04 L410.35,428.04 L410.35,428.04 Z M25.32,457.5 C28.67,457.67 119.36,464.7 120.55,465.57 C103.24,478 85.11,489.23 67.36,501 L27.03,501 C26.98,499.71 23.93,465.3 23.58,463.62 C23.58,463.62 24.7,459.52 25.32,457.5 L25.32,457.5 L25.32,457.5 Z" id="Shape" fill="#F9F9F9"></path>
            <path d="M107.59,1 C103.16,9.98 99.85,19.45 96.13,28.73 C74.3,30.13 52.52,26.67 30.73,25.72 C31.19,25.2 55.33,8.47 66.78,1 L107.59,1 Z M196.65,1 C194.87,2.06 97.1630696,68.8050461 97.1630696,68.8050461 C96.9030696,67.6950461 94.61,30.73 94.61,30.73 C94.85,30.52 157.07,11 187.63,1 L196.65,1 Z M343.57,1 C343.36,8.02 343.62,15.07 344.37,22.05 C329.28,14.93 313.72,8.8 298.95,1 L343.57,1 Z M332.77,100.4 C332.77,100.4 283.13,131.02 258.39,145.42 L258.66,144.34 C264.07,122.22 272.19,100.89 278.52,79.03 C296.92,85.28 314.35,94.16 332.77,100.4 Z M206.18,98.83 C190.06,124.18 129.77,207.41 119.1,225.85 L117.58,146.65 C119.25,146.53 202.55,100.35 206.18,98.83 Z M209.54,98.05 C225.62,113.23 240.12,129.92 255.74,145.55 L254.03,146.2 C247.81,148.36 241.29,149.44 234.87,150.76 C226.55,152.34 218.37,154.7 209.93,155.58 C209.83,149.82 209.71,144.06 209.6,138.31 C209.53,135.08 209.51,131.88 209.46,128.66 L209.37,119.69 C209.29,112.48 209.32,105.26 209.54,98.05 L209.54,98.05 Z M425.99,103.31 C426.3,108.31 428.75,139.44 429.49,148.3 C423.97,148 316.186191,143.263182 316.186191,143.263182 C336.706191,136.013182 424.52,103.46 425.99,103.31 Z M494.7,154.29 C496.62,160.16 499.05,165.86 501,171.72 L501,244 C498.06,243.99 429.53,238.76 426.53,238.67 C448.8,210.18 472.02,182.45 494.7,154.29 Z M24,246.11 C24,246.11 8.4,244.77 1,243.86 L1,174.26 C6.6,189.58 22.43,237.38 24,246.11 Z M115.44,228.52 C109.78,233.61 23.87,293.76 23.87,293.76 C23.77,290.74 25,251.21 25.05,246.3 C55.23,240.62 85.14,233.52 115.44,228.52 Z M104.55,284.87 C130.71,266.72 156.75,248.4 183.23,230.73 C179.42,255.39 173.48,279.67 168.67,304.15 C147.23,297.94 125.82,291.62 104.55,284.87 L104.55,284.87 Z M501,294.01 L501,310.44 C500.35,310.6 406.7,369 405,369.72 C405,369.72 409.32,293.15 409.33,291.79 C410.79,292.48 498.39,293.92 501,294.01 Z M22.63,295.12 C18.7,298.66 2.25,308.83 1,309.63 L1,294.13 C1.46,294.14 21.01,294.98 22.63,295.12 Z M317.947933,357.307328 L263.41,346.11 C281.97204,336.482607 305.013452,323.400599 324.107838,314.25793 C326.512849,313.106376 325.710065,315.392232 328.087177,314.25793 L317.947933,357.307328 Z M210.07,378.38 C208,384.49 190.08,431.75 182.96,449.16 L181.77,449.67 C162.86,454.64 143.76,458.88 124.65,463.03 C153.09,434.78 180.73,405.68 210.07,378.38 Z M252.77,480.51 C236.71,486.03 220.43,490.89 204.06,495.38 C218.94,475.28 264.9,418.87 270.86,409.17 C270.86,409.17 259.61,457.24 252.77,480.51 Z M337.16,439.72 C339.06,447.07 342.02,489.25 343.02,501 L298.62,501 C283.5,494.44 268.17,488.28 253.46,480.79 C281.67,467.78 309.11,453.1 337.16,439.72 Z M122.26,466.84 C117.72,478.38 112.78,489.79 107.47,501 L67.36,501 C85.11,489.23 103.24,478 120.55,465.57 C121.12,465.99 121.69,466.4 122.26,466.84 Z" id="Shape" fill="#F7F7F7"></path>
        </g>
    </g>
</svg>