<?xml version="1.0" encoding="UTF-8" ?>
<!DOCTYPE svg PUBLIC "-//W3C//DTD SVG 1.1//EN" "http://www.w3.org/Graphics/SVG/1.1/DTD/svg11.dtd">
<svg width="225pt" height="225pt" viewBox="0 0 225 225" version="1.1" xmlns="http://www.w3.org/2000/svg">
<g id="#fefefeff">
<path fill="#fefefe" opacity="1.00" d=" M 0.00 0.00 L 225.00 0.00 L 225.00 225.00 L 0.00 225.00 L 0.00 0.00 M 78.43 55.34 C 64.45 56.59 50.39 55.83 36.38 56.32 C 36.07 59.06 35.78 61.79 35.49 64.54 C 30.94 65.43 26.38 66.32 21.82 67.19 C 25.01 87.63 29.96 107.73 34.03 128.00 C 36.20 139.43 36.06 151.10 36.47 162.69 C 37.56 162.67 38.65 162.66 39.74 162.65 C 40.33 128.43 39.84 94.22 40.01 60.00 C 84.69 59.77 129.38 60.49 174.05 59.61 C 173.03 51.95 171.27 44.41 169.80 36.84 C 139.19 42.23 108.97 49.62 78.43 55.34 M 203.86 38.82 C 144.19 85.50 84.47 132.13 24.71 178.71 C 21.37 181.45 17.80 184.13 15.69 188.01 C 26.29 185.59 32.08 173.68 43.27 172.63 C 44.43 177.86 45.58 183.09 46.86 188.29 C 70.47 183.61 93.94 178.22 117.58 173.72 C 139.67 172.05 161.87 173.37 184.00 173.01 C 184.00 168.64 183.98 164.27 183.98 159.91 C 187.38 159.19 190.79 158.48 194.21 157.79 C 192.05 140.27 187.13 123.26 184.35 105.86 C 183.49 90.27 184.10 74.64 184.04 59.04 C 192.40 52.00 201.61 45.97 209.60 38.50 C 207.77 37.16 205.55 37.33 203.86 38.82 M 141.97 75.99 C 138.12 78.57 135.96 82.83 134.59 87.12 C 135.32 87.33 136.78 87.74 137.51 87.95 C 139.83 81.34 145.69 76.64 152.78 76.10 C 152.83 75.48 152.92 74.23 152.96 73.61 C 149.28 74.27 145.32 74.18 141.97 75.99 M 82.93 82.94 C 74.89 103.22 67.14 123.65 59.97 144.25 C 60.73 144.47 62.24 144.92 62.99 145.15 C 70.29 126.10 77.25 106.91 84.53 87.85 C 91.52 96.01 97.59 105.01 105.63 112.24 C 102.25 100.76 92.13 92.99 85.74 83.21 C 85.04 83.14 83.63 83.01 82.93 82.94 Z" />
<path fill="#fefefe" opacity="1.00" d=" M 94.68 55.71 C 118.74 50.66 142.74 45.27 166.92 40.84 C 168.01 45.87 169.11 50.90 170.19 55.93 C 145.02 55.97 119.84 56.24 94.68 55.71 Z" />
<path fill="#fefefe" opacity="1.00" d=" M 160.37 77.12 C 167.22 72.01 173.91 66.67 180.75 61.53 C 181.29 97.69 180.87 133.84 181.00 170.00 C 134.89 169.89 88.77 170.23 42.66 169.83 C 48.14 165.36 52.97 159.64 59.54 156.76 C 94.46 154.51 129.57 157.26 164.54 155.52 C 157.27 140.16 146.37 126.85 137.43 112.47 C 131.35 116.46 125.49 120.78 119.77 125.27 C 117.01 122.14 114.29 118.98 111.57 115.82 C 119.48 109.02 127.66 102.52 136.23 96.59 C 140.32 99.60 144.43 103.62 150.04 103.00 C 155.71 103.37 161.09 99.38 163.29 94.31 C 165.19 88.38 163.45 82.24 160.37 77.12 Z" />
<path fill="#fefefe" opacity="1.00" d=" M 25.83 70.10 C 29.19 69.33 32.56 68.55 35.93 67.80 C 36.03 84.95 36.11 102.11 35.76 119.26 C 32.25 102.92 28.53 86.60 25.83 70.10 Z" />
<path fill="#fefefe" opacity="1.00" d=" M 139.20 94.35 C 145.33 88.97 151.73 83.89 158.40 79.19 C 159.49 83.02 160.28 86.92 160.76 90.87 C 159.80 95.17 156.02 98.90 151.60 99.51 C 146.54 101.00 142.99 96.71 139.20 94.35 Z" />
<path fill="#fefefe" opacity="1.00" d=" M 108.47 117.84 C 111.87 121.69 115.11 125.66 118.32 129.67 C 124.76 126.19 130.16 121.13 136.50 117.49 C 143.96 129.01 151.64 140.40 159.12 151.93 C 127.70 152.04 96.28 152.04 64.86 151.94 C 79.39 140.56 93.91 129.18 108.47 117.84 Z" />
<path fill="#fefefe" opacity="1.00" d=" M 184.40 126.61 C 187.06 135.93 188.79 145.47 190.82 154.94 C 188.55 155.37 186.28 155.81 184.00 156.22 C 184.01 146.35 183.89 136.47 184.40 126.61 Z" />
<path fill="#fefefe" opacity="1.00" d=" M 46.83 173.06 C 64.67 173.01 82.51 172.75 100.35 173.35 C 83.44 177.55 66.30 180.75 49.23 184.19 C 48.43 180.48 47.61 176.77 46.83 173.06 Z" />
</g>
<g id="#111111ff">
<path fill="#111111" opacity="1.00" d=" M 78.43 55.34 C 108.97 49.62 139.19 42.23 169.80 36.84 C 171.27 44.41 173.03 51.95 174.05 59.61 C 129.38 60.49 84.69 59.77 40.01 60.00 C 39.84 94.22 40.33 128.43 39.74 162.65 C 38.65 162.66 37.56 162.67 36.47 162.69 C 36.06 151.10 36.20 139.43 34.03 128.00 C 29.96 107.73 25.01 87.63 21.82 67.19 C 26.38 66.32 30.94 65.43 35.49 64.54 C 35.78 61.79 36.07 59.06 36.38 56.32 C 50.39 55.83 64.45 56.59 78.43 55.34 M 94.68 55.71 C 119.84 56.24 145.02 55.97 170.19 55.93 C 169.11 50.90 168.01 45.87 166.92 40.84 C 142.74 45.27 118.74 50.66 94.68 55.71 M 25.83 70.10 C 28.53 86.60 32.25 102.92 35.76 119.26 C 36.11 102.11 36.03 84.95 35.93 67.80 C 32.56 68.55 29.19 69.33 25.83 70.10 Z" />
<path fill="#111111" opacity="1.00" d=" M 203.86 38.82 C 205.55 37.33 207.77 37.16 209.60 38.50 C 201.61 45.97 192.40 52.00 184.04 59.04 C 184.10 74.64 183.49 90.27 184.35 105.86 C 187.13 123.26 192.05 140.27 194.21 157.79 C 190.79 158.48 187.38 159.19 183.98 159.91 C 183.98 164.27 184.00 168.64 184.00 173.01 C 161.87 173.37 139.67 172.05 117.58 173.72 C 93.94 178.22 70.47 183.61 46.86 188.29 C 45.58 183.09 44.43 177.86 43.27 172.63 C 32.08 173.68 26.29 185.59 15.69 188.01 C 17.80 184.13 21.37 181.45 24.71 178.71 C 84.47 132.13 144.19 85.50 203.86 38.82 M 160.37 77.12 C 163.45 82.24 165.19 88.38 163.29 94.31 C 161.09 99.38 155.71 103.37 150.04 103.00 C 144.43 103.62 140.32 99.60 136.23 96.59 C 127.66 102.52 119.48 109.02 111.57 115.82 C 114.29 118.98 117.01 122.14 119.77 125.27 C 125.49 120.78 131.35 116.46 137.43 112.47 C 146.37 126.85 157.27 140.16 164.54 155.52 C 129.57 157.26 94.46 154.51 59.54 156.76 C 52.97 159.64 48.14 165.36 42.66 169.83 C 88.77 170.23 134.89 169.89 181.00 170.00 C 180.87 133.84 181.29 97.69 180.75 61.53 C 173.91 66.67 167.22 72.01 160.37 77.12 M 139.20 94.35 C 142.99 96.71 146.54 101.00 151.60 99.51 C 156.02 98.90 159.80 95.17 160.76 90.87 C 160.28 86.92 159.49 83.02 158.40 79.19 C 151.73 83.89 145.33 88.97 139.20 94.35 M 108.47 117.84 C 93.91 129.18 79.39 140.56 64.86 151.94 C 96.28 152.04 127.70 152.04 159.12 151.93 C 151.64 140.40 143.96 129.01 136.50 117.49 C 130.16 121.13 124.76 126.19 118.32 129.67 C 115.11 125.66 111.87 121.69 108.47 117.84 M 184.40 126.61 C 183.89 136.47 184.01 146.35 184.00 156.22 C 186.28 155.81 188.55 155.37 190.82 154.94 C 188.79 145.47 187.06 135.93 184.40 126.61 M 46.83 173.06 C 47.61 176.77 48.43 180.48 49.23 184.19 C 66.30 180.75 83.44 177.55 100.35 173.35 C 82.51 172.75 64.67 173.01 46.83 173.06 Z" />
<path fill="#111111" opacity="1.00" d=" M 141.97 75.99 C 145.32 74.18 149.28 74.27 152.96 73.61 C 152.92 74.23 152.83 75.48 152.78 76.10 C 145.69 76.64 139.83 81.34 137.51 87.95 C 136.78 87.74 135.32 87.33 134.59 87.12 C 135.96 82.83 138.12 78.57 141.97 75.99 Z" />
<path fill="#111111" opacity="1.00" d=" M 82.93 82.94 C 83.63 83.01 85.04 83.14 85.74 83.21 C 92.13 92.99 102.25 100.76 105.63 112.24 C 97.59 105.01 91.52 96.01 84.53 87.85 C 77.25 106.91 70.29 126.10 62.99 145.15 C 62.24 144.92 60.73 144.47 59.97 144.25 C 67.14 123.65 74.89 103.22 82.93 82.94 Z" />
</g>
</svg>
